<?xml version="1.0" encoding="UTF-8"?>
<!DOCTYPE svg PUBLIC "-//W3C//DTD SVG 1.1//EN" "http://www.w3.org/Graphics/SVG/1.1/DTD/svg11.dtd">
<svg xmlns="http://www.w3.org/2000/svg" version="1.1" width="128px" height="128px" style="shape-rendering:geometricPrecision; text-rendering:geometricPrecision; image-rendering:optimizeQuality; fill-rule:evenodd; clip-rule:evenodd" xmlns:xlink="http://www.w3.org/1999/xlink">
<g><path style="opacity:0.963" fill="#71fd00" d="M 11.5,75.5 C 9.91285,72.7318 8.07952,70.0652 6,67.5C 3.29149,60.0619 1.12482,52.7286 -0.5,45.5C -0.5,44.1667 -0.5,42.8333 -0.5,41.5C 2.88033,16.3967 17.547,7.73003 43.5,15.5C 50.7921,18.7234 57.2921,23.0568 63,28.5C 70.0598,22.518 77.8931,17.6846 86.5,14C 101.387,10.0729 113.387,14.0729 122.5,26C 123.94,31.3025 125.273,36.6358 126.5,42C 124.924,48.603 123.59,55.2696 122.5,62C 118.882,71.6104 112.549,78.6104 103.5,83C 103.833,83.3333 104.167,83.6667 104.5,84C 98.8767,87.9546 93.5434,92.2879 88.5,97C 80.3409,101.47 72.6743,106.804 65.5,113C 63.3313,113.429 61.3313,112.929 59.5,111.5C 46.096,101.737 32.7627,92.0708 19.5,82.5C 19.5,81.5 19.5,80.5 19.5,79.5C 16.3102,79.1472 13.6435,77.8138 11.5,75.5 Z M 33.5,43.5 C 40.9675,44.6744 42.3008,48.1744 37.5,54C 32.1778,54.3403 30.0112,51.8403 31,46.5C 32.045,45.6266 32.8783,44.6266 33.5,43.5 Z M 88.5,43.5 C 93.6646,43.1619 95.8313,45.4953 95,50.5C 92,54.5 89,54.5 86,50.5C 85.162,47.5193 85.9953,45.1859 88.5,43.5 Z M 40.5,68.5 C 41.8221,68.33 42.9887,68.6634 44,69.5C 44.9534,75.7874 48.4534,77.9541 54.5,76C 57.1667,74.6667 59.1667,72.6667 60.5,70C 62.1667,69.3333 63.8333,69.3333 65.5,70C 72.6026,79.0977 78.6026,78.5977 83.5,68.5C 85.1667,69.5 86.5,70.8333 87.5,72.5C 84.0804,80.7863 78.0804,83.9529 69.5,82C 67.8302,80.0246 65.6636,79.1912 63,79.5C 58.8143,80.795 54.481,81.795 50,82.5C 42.5503,80.5763 39.3836,75.9097 40.5,68.5 Z"/></g>
<g><path style="opacity:0.506" fill="#71fd00" d="M 11.5,75.5 C 10.8333,76.1667 10.8333,76.1667 11.5,75.5 Z"/></g>
</svg>
